<?xml version="1.0" encoding="utf-8" standalone="no"?>
<!DOCTYPE svg PUBLIC "-//W3C//DTD SVG 1.1//EN" "http://www.w3.org/Graphics/SVG/1.1/DTD/svg11-flat-20030114.dtd">
<!-- Created by SVGDeveloper 1.0 -->
<svg width="524" height="580" version="1.1" xmlns="http://www.w3.org/2000/svg" xmlns:xlink="http://www.w3.org/1999/xlink" transform="matrix(1,0,0,1,0,1)">
<defs>
<linearGradient id="linearGradient">
<stop offset="1%" stop-color="rgb(168,178,216)" stop-opacity="1" />
<stop offset="18%" stop-color="rgb(0,0,128)" stop-opacity="1" />
<stop offset="48%" stop-color="rgb(214,218,238)" stop-opacity="1" />
<stop offset="83%" stop-color="rgb(192,192,255)" stop-opacity="1" />
<stop offset="99%" stop-color="rgb(0,0,128)" stop-opacity="1" />
</linearGradient>
</defs>
<path d="M247 18L260 18C260 18 258 4 254 2L256 -8L260 -10C260 -10 269 -11 270 -8C270 -8 275 -12 277 -12C277 -12 286 -16 288 -13C288 -13 290 -9 292 -8C292 -8 295 -8 296 -11C296 -11 296 -16 296 -19C296 -19 299 -23 298 -25C298 -28 295 -25 296 -32C296 -32 296 -37 301 -36C301 -36 308 -39 310 -33C310 -33 314 -31 318 -31C318 -31 319 -22 320 -19C320 -19 319 -16 318 -15C317 -15 316 -18 315 -8C315 -8 317 4 320 4C320 4 326 9 325 14C325 14 328 20 334 22C334 22 341 28 344 33C344 33 345 38 349 37C349 37 356 40 358 44C358 44 365 49 364 53C364 53 362 55 360 54C360 54 355 61 354 62C354 62 352 65 350 68C350 68 351 72 343 71C343 71 339 70 338 72C338 72 339 77 339 81C339 81 342 86 338 88C338 88 337 84 332 88C332 88 328 91 327 92C327 92 324 92 323 96C323 96 322 97 320 99L320 110C320 110 317 110 318 115C318 115 318 121 319 122C319 122 320 123 320 129C320 129 322 129 322 133L319 136C319 136 315 136 314 138L313 141C313 141 318 142 318 143C318 143 321 146 320 148C320 148 321 151 320 153C320 153 317 156 318 159C318 159 317 162 320 166L320 174C320 174 324 176 324 179C324 179 324 199 325 200C325 201 323 199 323 206C323 206 326 208 326 209C325 210 323 210 325 214C326 214 331 218 331 218C331 218 333 220 335 220L333 225C333 225 330 232 328 234C328 234 324 237 323 238C323 238 324 242 322 241L321 244C321 244 317 248 315 247L312 248C312 248 313 245 312 242C312 242 302 241 301 241C300 241 299 242 299 244C299 244 297 241 296 241C296 241 296 240 292 239C292 239 288 238 288 237C288 236 288 235 281 235C281 235 275 238 273 240C273 240 269.1213 240.1213 267 238C267 238 265 235 261 233C261 233 257 230 257 226C257 226 257 220 256 220C256 220 252 218 249 218C249 218 247 216 245 217C245 217 244 214 240 210C240 210 236 205 234 205L231 204C231 204 228 199 225 199C225 199 222 198 220 199C220 199 217 201 218 194C218 194 218 192 221 190C221 190 218 189 219 180C219 180 217 178 220 175C220 175 222 170 220 168C220 168 214 169 221 165C221 165 223 162 225 162C225 162 223 160 236 162L236 166L238 166C238 166 238 169 240 169C242 169 249 166 253 167L258 166C258 166 255 162 266 166C266 166 270 168 272 163C272 163 274 159 274 158C274 158 271 155 271 153C271 153 269 151 267 150L263 150C263 150 260 150 262 148C262 148 263 145 265 142L269 141L269 137L272 136L272 134L274 132L275 129L277 127L277 123L278 119L279 116L283 115L285 115L287 112L286 110L283 110L283 108L279 108L279 106L277 104L274 104L273 98L269 98L266 98L267 94L269 92L270 91L268 90L270 88L271 86L272 82L272 78L273 74L270 74L270 69L267 66L264 64L261 63L257 60L253 55L252 52L252 50L249 49L246 46L245 43L243 40L239 35L234 30L227 22L226 16L228 10L230 8L235 5L238 4L241 7L241 10L242 14L244 17L247 18Z" fill="#FFCCFF" fill-opacity="1" stroke="#00FF00" id="p_sz" xmlns="http://www.w3.org/2000/svg" />
	<text x="270.5" y="62.5" xml:space="preserve" font-family="微软雅黑" font-size="20" fill="none" fill-opacity="0" stroke="#FFF" id="t_sz">
	宿州</text>
	<text x="320" y="57.5" xml:space="preserve" font-family="微软雅黑" font-size="12" fill="none" fill-opacity="0" stroke="#FF0000" baseline-shift="baseline">
	</text>
	<path d="M246 58L237 60L222 60L220 63L219 66L214 61L210 56L208 54L202 54L202 59L200 61L199 67L197 70L194 74L191 76L188 78L186 83L184 88L184 94L183 96L177 97L175 100L170 104L166 107L167 111L163 112L160 115L157 118L150 118L148 120L144 124L142 124L140 119L135 117L129 116L124 114L121 114L118 118L115 120L115 122L109 123L103 123L99 125L99 128L98 131L96 134L92 134L88 136L86 140L81 142L80 144L79 148L77 149L77 152L76 153L75 157L76 162L79 165L81 165L81 170L83 170L83 175L82 180L83 183L89 184L92 187L92 189L94 193L96 196L98 199L101 204L104 206L105 210L111 212L117 213L120 214L121 218L121 220L122 223L124 226L126 230L126 235L129 239L127 242L126 245L129 247L132 246L136 243L139 240L141 233L142 230L143 228L140 225L139 222L138 220L141 217L143 216L146 214L151 218L152 223L155 224L159 222L161 218L165 218L167 220L171 221L174 222C175 223 175 226 175 226L180 225L180 220L181 216L182 212L185 207L191 206L196 204L200 203L202 204L207 204L209 202L213 203L217 204L219 200L218 195L220 190L219 184L219 180L218 177L220 175L221 171L220 168L218 168L223 163L226 162L237 162L236 165L238 166L240 168L242 168L246 168L253 166L257 166L258 164L264 165L268 166L272 164L273 161L272 156" fill="none" fill-opacity="0" stroke="#FF0000" />
	<path d="M246 58L237 60L222 60L220 63L219 66L214 61L210 56L208 54L202 54L202 59L200 61L199 67L197 70L194 74L191 76L188 78L186 83L184 88L184 94L183 96L177 97L175 100L170 104L166 107L167 111L163 112L160 115L157 118L150 118L148 120L144 124L142 124L140 119L135 117L129 116L124 114L121 114L118 118L115 120L115 122L109 123L103 123L99 125L99 128L98 131L96 134L92 134L88 136L86 140L81 142L80 144L79 148L77 149L77 152L76 153L75 157L76 162L79 165L81 165L81 170L83 170L83 175L82 180L83 183L89 184L92 187L92 189L94 193L96 196L98 199L101 204L104 206L105 210L111 212L117 213L120 214L121 218L121 220L122 223L124 226L126 230L126 235L129 239L127 242L126 245L129 247L132 246L136 243L139 240L141 233L142 230L143 228L140 225L139 222L138 220L141 217L143 216L146 214L151 218L152 223L155 224L159 222L161 218L165 218L167 220L171 221L174 222C175 223 175 226 175 226L180 225L180 220L181 216L182 212L185 207L191 206L196 204L200 203L202 204L207 204L209 202L213 203L217 204L219 200L218 195L220 190L219 184L219 180L218 177L220 175L221 171L220 168L218 168L223 163L226 162L237 162L236 165L238 166L240 168L242 168L246 168L253 166L257 166L258 164L264 165L268 166L272 164L273 161L272 156L271 153L268 151L264 150L262 150L264 146L264 143L267 141L268 140L269 136L272 136L272 134L275 131L277 126L278 121L279 117L283 115L286 114L286 112L286 110L283 110L283 108L279 108L278 106L276 104L274 104L273 98L266 98L267 94L271 91L268 89L270 88L272 84L272 80L272 76L274 74L270 74L270 69L267 66L265 65L262 63L258 61L254 61L250 61L249 58L246 58Z" fill="#CC9999" fill-opacity="1" stroke="#666666" id="p_hf" xmlns="http://www.w3.org/2000/svg" />
	<text x="155.5" y="147" xml:space="preserve" font-family="微软雅黑" font-size="20" fill="none" fill-opacity="0" stroke="#FFFFFF" id="t_hf" baseline-shift="baseline">
	合肥</text>
	<path d="M114 259L112 266L106 267L105 271L105 276L104 282L107 282L111 282L118 283L124 288L125 292L128 295L132 297L132 300L136 304C138 304 141 306 141 306L144 306L147 305L157.5 300.5L162 294L166 293L172 292L180 291L184 289L186 284L190 280L194 278L198 281L201 284L204 288L205 291L206 295L211 296L212 298L216 300L217 304L219 306L222 309L226 312L230 310L235 309L239 310L239 314L242 318L244 318L247 315L249 313L251 312L254 310L257 308L258 305L260 299L264 298L265 294L264 286L263 279L263 271L264 266L264 264L261 259L263 253L264 249L265 247L266 244L270 243L271 240L269 239L267 237L264 235L262 233L260 232L258 230L257 225L256 222L256 220L253 218L249 218L247 217L244 217L244 214L241 212L239 209L237 207L234 206L231 204L228 202L226 199L223 199L219 198L219 199L218 202L216 203L212 203L209 202L207 204L202 204L200 203L196 204L191 206L186 207L184 208L182 213L181 218L179 222L179 226L176 225L174 223L168 220L165 219L163 218L160 218L160 221L157 223L154 223L151 222L151 220L150 217L147 215C146 214 144 215 144 215L141 217L138 219L139 222L140 224L142 227L143 228L141 231L140 237L139 239L138 241L136 242L133 245L131 246L128 247L125 247L122 247L119 251L117 252L115 256L114 259Z" fill="#33FF33" fill-opacity="1" stroke="#CCCCCC" id="p_xx" xmlns="http://www.w3.org/2000/svg" />
	<text x="178.5" y="259.5" xml:space="preserve" font-family="微软雅黑" font-size="16" fill="none" fill-opacity="0" stroke="#FF0000" baseline-shift="baseline" id="t_xx">萧县</text>
	<path d="M372 63L374 70L381 77L386 82L395 88L410 86L422 86L434 86L448 88L455 92L462 97L468 100L478 96C478 96 488 91 489 90C490 90 500 93 500 93L510 93L520 96L521 104L514 112L508 109L506 106L502 113C498 112 498 121 498 121L502 130L499 134L490 137L484 133L478 132L466 132L462 139L457 146L456 152L452 155L446 156L452 166L454 172L458 176L458 185L454 192L452 200L440 200L432 200L426 204L420 208L414 210L407 212L400 216C397 214 394 223 394 223L392 228L390 230L384 235L382 238L381 244L380 248L378 252L370 252L366 246L360 240L360 234L358 229L352 223L348 227L346 232L338 234L332 236L326 234L332 230L334 224L336 220L326 212L326 208L324 206L324 200L325 192L324 180L318 174L320 168L318 161L320 152L320 142L312 142L314 137L323 132L320 124L318 114L320 108L319 100L322 96L330 92L334 88L340 88L339 79L339 72L347 70L354 59L360 54L364 52L366 56C366 58 372 63 372 63Z" fill="#9966FF" fill-opacity="1" stroke="#006633" id="p_ds" xmlns="http://www.w3.org/2000/svg" />
	<text x="364.5" y="150.5" xml:space="preserve" font-family="微软雅黑" font-size="20" fill="none" fill-opacity="0" stroke="#FFF" baseline-shift="baseline" id="t_ds">砀山</text>
	<path d="M457 213L457 213L464 218L463 224L466 230L472 230C476 228 480 237 480 237L480 244L481 248L486 248L492 252L490 255L490 262C494 264 494 268 494 268L489 270L482 272L482 276L481 284L474 287L470 283L469 287L464 291L461 295L452 291L450 294L448 298L444 304L444 308L438 308L432 308L423 310L412 308L407 313L404 318L398 322L392 321L386 318L380 316L384 312C386 310 388 306 388 306L386 300L384 291L384 282L384 276L382 272L378 266L378 258L378 256L380 251L380 247L380 242L382 236L388 233L392 228L393 222L398 217L405 214L415 208L424 204L432 198L440 198L451 202C454 201 457 206 457 206" fill="#FFCCFF" fill-opacity="1" id="p_sx" stroke="url(#linearGradient)" xmlns="http://www.w3.org/2000/svg" />
	<text x="410.5" y="258" xml:space="preserve" font-family="微软雅黑" font-size="16" fill="none" fill-opacity="0" stroke="#FF0000" id="t_sx" baseline-shift="baseline">
	泗县</text>
	<path d="M364 318L358 319L352 314L350 318L347 322L340 324L335 324L330 324L322 324L315 326L303 324L297 322L293 325L282 313L280 306L269 304C265 303 258 302 258 302L264 298L264 290L264 279L263 267L263 260L263 256L266 245L272 244L278 236L290 238L296 239L300 242L310 240L312 244L319 244L321 239L327 235L338 234L350 230L351 223L357 228L360 236L362 242L366 246L370 251L378 250C380 249 378 254 378 254L378 265L382 272L387 281L384 288L384 296L388 300L387 308L383 312L380 316L372 316L364 318Z" fill="#66CC00" fill-opacity="1" stroke="#333300" id="p_xz" xmlns="http://www.w3.org/2000/svg" />
	<path d="M38 296L26 304L26 308L19 313L14 318L10 326L5 333C5 333 5 342 5 343C5 344 8 350 8 350L14 351L18 356L20 362L22 368L22 374L24 380L26 388L36 392L38 395L45 390L53 382L50 376L56 376L62 371L68 366L80 364L86 359L98 360L107 365L118 361L127 361L135 366L132 374L140 374L144 381L146 384C149 384 156 386 156 386L162 387L162 378L170 378L178 372L184 370L178 360L174 357L174 353L173 347C170 345 170 340 170 340L175 334L182 334L190 334L186 325L179 324L176 320L166 319L160 316L161 306L156 301C153 301 145 305 145 305L140 305L132 302L132 295L122 290L122 286L116 284L110 282C106 280 102 279 102 279L98 277L93 272L91 270L82 275C82 277 80 282 80 282L76 286L70 282L63 284L56 288L48 288L46 292L45 297C45 297 38 297 38 296Z" fill="#FF9999" fill-opacity="1" id="p_ch" stroke="#FFFFCC" xmlns="http://www.w3.org/2000/svg" />
	<text x="77.5" y="326.5" xml:space="preserve" font-family="微软雅黑" font-size="16" fill="none" fill-opacity="0" stroke="#FF0000" baseline-shift="baseline" id="t_ch">巢湖</text>
	<path d="M190 412L196 407L198 402L199 398L204 398L208 401L210 404L218 404L220 409L225 406L225 402L234 401L234 404L242 406L251 406L251 399L244 399L239 402L238 396L248 394L250 390L256 394L261 394L268 394L276 391L285 393L294 390L298 384L300 376L300 368L299 361L300 354L305 352L303 341L302 334L302 329L298 326L295 323L290 322L288 316L281 314L281 308L278 304L263 304L260 302C259 304 254 308 254 308L249 310L244 316L240 314L240 308L233 310L228 310L224 310L220 304L216 300L214 296L208 296L203 289L202 283L196 280C192 279 186 280 186 280L186 284L182 289L174 292C170 292 166 294 166 294L160 294L159 299L160 304L161 309L161 314L161 316C164 317 169 320 169 320L178 319L178 322L183 324C185 324 188 328 188 328L188 334L184 332L177 333L174 336L172 340L172 344L174 349L175 355L178 362L180 365L184 366L184 370C180 371 175 373 175 373L173 376C170 376 166 377 166 377L161 377L162 382L162 388L162 391L164 394L164 398L164 402L164 406L170 409C173 410 174 411 174 411L181 412L180 415C180 415 190 411 190 412Z" fill="#FFCCCC" fill-opacity="1" id="p_la" stroke="#CCFFCC" xmlns="http://www.w3.org/2000/svg" />
	<text x="215" y="352" xml:space="preserve" font-family="微软雅黑" id="t_la" font-size="16" fill="none" fill-opacity="0" stroke="#FF0000" baseline-shift="baseline">
	六安</text>
	<text x="323" y="284.5" xml:space="preserve" font-family="微软雅黑" font-size="16" fill="none" fill-opacity="0" stroke="#FF0000" id="t_xz" baseline-shift="baseline">
	徐州</text>
	<path d="M280 425L280 430L284 431L292 430L298 429L304 431L304 438L308 442L311 448L316 448L320 448L322 454L322 458L323 464L327 467L332 468L334 472L340 472L343 468L348 466C352 466 352 457 352 457L354 452L360 451L364 448L371 444L368 441L364 436L364 431L368 426L368 418L372 412L377 412L380 408L382 402L378 398L372 388L372 384L367 383L366 388L362 384L353 383L350 377L346 372L339 368L338 359L339 352L335 348L336 342L337 337L336 327L336 324L324 324L318 326C314 326 308 326 308 326L300 323L295 323L299 326L302 330L302 334L304 342L306 348L306 351L300 354C300 356 300 362 300 362L300 370L300 376L299 381L298 388L294 389L290 392L277 391L278 400L278 408L278 414L280 420C280 420 280 426 280 425Z" fill="#CC99FF" id="p_nj" fill-opacity="1" stroke="#FF0000" xmlns="http://www.w3.org/2000/svg" />
	<text x="310" y="397.5" xml:space="preserve" font-family="微软雅黑" font-size="16" fill="none" fill-opacity="0" stroke="#FF0000" baseline-shift="baseline" id="t_nj" >南京</text>
<path  d="M0 406L0 412L4 415L8 420L13 420L18 421L18 426L16 434L14 437L14 444L15 450C17 451 22 452 22 452L24 457L22 462L20 468L24 472L28 469C32 468 34 464 34 464L36 468C39 470 45 470 45 470L55 472L62 468L65 472L66 478L66 480L70 484L76 490L79 498L84 500L92 500L94 502L102 501L102 494L106 491L112 489L116 486L119 482L122 477L123 473L127 479L130 482C134 484 138 478 138 478C140 476 146 478 146 478L154 482L162 482L169 482L177 484L182 482L189 478L193 482C196 482 200 480 200 480L200 474L198 462L197 452L198 446L200 438L204 432L205 422L207 416C207 416 208 410 207 410C206 410 204 407 204 407L208 402L206 398L198 396L198 400L198 406L194 410C193 410 184 412 184 412C181 414 178 412 178 412L170 409L167 406L164 400L164 394L162 390L159 386L153 385L146 384L144 379L140 374C136 373 134 373 134 373L134 368L135 365C132 364 126 360 126 360L119 361L114 362C110 362 108 364 108 364C104 362 98 362 98 362L94 360L84 360L82 364C79 364 74 364 74 364C71 366 66 367 66 367C66 368 61 370 61 370L58 374L52 375L50 378L51 381L48 385L45 388L41 394C38 393 35 394 35 394L30 399L22 398L17 397L10 401L-5 402C-5 402 -2 406 0 406Z" fill="#99CCFF" id="p_bb" fill-opacity="0.5" stroke="#99CC99" xmlns="http://www.w3.org/2000/svg" />
<text x="72" y="428.5" xml:space="preserve" font-family="微软雅黑" id="t_bb" font-size="16" fill="none" fill-opacity="0" stroke="#FF0000" baseline-shift="baseline">
蚌埠</text>
<path d="M236 526L242 526C246 526 252 526 252 526C256 526 256 518 256 518L256 510L251 508L246 501L251 502L256 500L258 496L262 494L264 490L268 491L270 486L276 480L274 474L280 473L283 468L286 464C290 464 294 466 294 466L296 471L301 472L312 472L320 471L324 466L324 461L322 455L320 448L314 447C311 447 308 442 308 442L304 438L304 429L295 428C292 428 288 430 288 430L282 430L280 425L280 416L278 412L280 405L278 400L276 394L274 390C270 392 268 394 268 394L260 392L255 392L250 390L248 394L243 394C240 395 240 397 240 397L242 400C246 400 250 400 250 400L251 403L248 406L240 404L235 404L234 402L230 402L225 403L222 410C220 408 218 404 218 404L213 403L208 402L205 405L205 410L206 413L206 418L205 422L204 426L202 429L202 436L200 440L196 446L197 451L198 459L198 470L200 476L200 481L200 486L204 493L204 496L204 500L206 504L208 508L212 511L220 515L222 520L230 524C230 524 236 525 236 526Z" fill="#FFCC33" fill-opacity="1" id="p_cz" stroke="#FFFFFF" xmlns="http://www.w3.org/2000/svg" />
<text x="228" y="457" xml:space="preserve" font-family="微软雅黑" id="t_cz" font-size="16" fill="none" fill-opacity="0" stroke="#FF0000" baseline-shift="baseline">
常州</text>
<path d="M436 330L433 336L432 342L434 356L439 364L441 370L445 378L447 386L447 397L447 404L443 410L443 422L442 428L442 434L435 440L432 446L425 449L409 450L398 452L386 452L373 450L371 445L366 440L364 432L366 428L369 422L370 414L376 411L378 408L382 403L379 396L375 394L372 385L368 384L368 388L363 386L359 384L354 384L349 374L344 372L340 368L340 359L340 352L337 348L336 346L336 340L336 334L336 328L337 325L344 324L346 320C350 318 351 314 351 314L356 316L360 318L370 318L376 315L382 315C386 317 392 320 392 320L397 322L401 319L405 314L408 310L414 308L422 310L430 308L437 308C440 309 440 313 440 313L439 320L438 323C438 323 436 331 436 330Z" fill="#99FFFF" id="p_nh" fill-opacity="1" stroke="#FF0000" xmlns="http://www.w3.org/2000/svg" />
<text x="383.5" y="366.5" xml:space="preserve" font-family="微软雅黑" id="t_nh" font-size="16" fill="none" fill-opacity="0" stroke="#FF0000" baseline-shift="baseline">
南海</text>
<path d="M320 470L318 481L322 493L326 498C329 500 330 501 330 501L336 504L334 509L338 516L333 523L331 528" fill="none" fill-opacity="0" stroke="#99CCFF" xmlns="http://www.w3.org/2000/svg" />
<text x="286.5" y="508.5" xml:space="preserve" font-family="微软雅黑" font-size="10" fill="none" fill-opacity="0" stroke="#FF0000" baseline-shift="baseline">
印度洋</text>
</svg>
